<svg xmlns:rdf="http://www.w3.org/1999/02/22-rdf-syntax-ns#" xmlns="http://www.w3.org/2000/svg" xmlns:cc="http://creativecommons.org/ns#" xmlns:dc="http://purl.org/dc/elements/1.1/" version="1.1" viewBox="0 0 100 100" x="0px" y="0px"><g transform="translate(0,-952.36218)"><path style="baseline-shift:baseline;block-progression:tb;color:#000000;direction:ltr;text-indent:0;enable-background:accumulate;text-transform:none;" fill="#000" d="M34.531,5.0625l-0.031,0.0313c-1.342,0.0234-2.74,0.4438-4.156,1.4687-5.066,3.6655-6.695,9.6555-8.782,15.126-0.011,0.051-0.019,0.104-0.031,0.156l-0.093-0.063c-0.712,1.15-1.852,1.531-2.657,6.063-0.036,0.207-0.059,0.417-0.093,0.625h0.031l0.125,0.219h-0.188c-0.022,0.135-0.041,0.27-0.062,0.406,0.075,0.033,0.137,0.093,0.218,0.125,0.069-0.452,0.14-0.895,0.219-1.344,0.735-4.142,1.695-4.671,2.438-5.687-0.539,2.481-0.927,4.966-1.219,7.437,0.033,0.008,0.06,0.024,0.094,0.031,0.02,0.004,0.072-0.004,0.094,0,0.307-2.614,0.756-5.249,1.343-7.875,0.003-0.01-0.002-0.021,0-0.031,2.088-5.478,3.713-11.4,8.688-15,1.396-1.0103,2.788-1.428,4.093-1.4375,0.436-0.003,0.867,0.0443,1.282,0.125,1.66,0.3227,3.13,1.2833,4.25,2.4687l5.906,6.1878,0.031,0.062h0.031c-1.207,1.473-2.188,2.849-2.812,5.313-0.78-2.506-1.827-5.033-3.594-7.344-0.977-1.277-2.351-2.6218-3.968-3.125-0.809-0.2516-1.666-0.2656-2.563,0s-1.859,0.8299-2.781,1.812c-3.677,3.916-6.678,11.607-7.906,16.157l0.218,0.062c1.221-4.519,4.263-12.215,7.875-16.062,1.8-1.9165,3.524-2.1979,5.063-1.719s2.917,1.747,3.875,3c2.276,2.977,3.4,6.374,4.219,9.562,0.008,0.033,0.023,0.062,0.031,0.094,0.057,0.248,0.127,0.506,0.187,0.75,0.188,0.767,0.358,1.523,0.532,2.25-0.353,1.335-0.679,2.755-0.938,4.25l0.25,0.125c0.244-1.418,0.514-2.759,0.844-4.031,0.29,0.931,0.632,1.827,0.968,2.719,0.148,0.46,0.278,0.835,0.438,1.375,0.706,2.379,1.546,5.479,2.438,8.844,1.783,6.728,3.676,14.505,4.75,19.718,1.769,9.686,2.091,17.861-0.688,24.188-2.19-2.968-4.634-10.479-6.344-13.969,0,0-0.261,0.08-0.281,0.031,1.699,3.507,4.267,11.336,6.531,14.313l0.125,0.156,0.094-0.187c2.926-6.438,2.608-14.738,0.813-24.563-1.076-5.222-2.967-13.05-4.75-19.781-0.866-3.265-1.742-6.212-2.438-8.563,0.884-1.291,1.136-2.885,2.75-3.812,0.003,0.011-0.004,0.018,0,0.031,0.031,0.109,0.067,0.259,0.125,0.469,0.048,0.171,0.124,0.483,0.187,0.719,0.033,0.124,0.064,0.228,0.094,0.343l0.782-1.062-0.407-0.5h0.594l0.094,0.093,0.062-0.093h0.844l-0.5,0.625,1.219,1.375,0.937-1.219-0.656-0.781h0.656l0.313,0.375,0.281-0.375h0.75l-0.625,0.843,1.219,1.407,0.937-1.219-0.875-1.031h0.657l0.562,0.656,0.469-0.656h0.75l-0.813,1.125,1.156,1.375,0.969-1.219-1.125-1.281h0.688l0.718,0.906,0.688-0.906h1.188l1,1.125,0.874-1.125h0.844l-0.031,0.031,1.187,1.375,0.907-1.219-0.157-0.187h1.094l-0.187,0.25,1.219,1.437,0.937-1.25-0.375-0.437h0.656l0.032,0.031,0.031-0.031h0.75l-0.375,0.531,1.218,1.375,0.907-1.187-0.594-0.719h0.656l0.25,0.281,0.219-0.281h0.75l-0.562,0.75,1.218,1.437,0.938-1.25-0.844-0.937h0.688l0.437,0.531,0.125-0.156c0.014,0.051,0.017,0.105,0.031,0.156l0.031,0.031-0.031,0.031,0.344,1.313-0.375-0.437-0.938,1.187,1.219,1.406,0.5-0.656c0.061,0.238,0.126,0.48,0.188,0.719l-0.281,0.375,0.562,0.687c0.099,0.377,0.212,0.747,0.312,1.125-0.32-1.212-0.606-2.43-0.906-3.625l-0.031-0.031-0.531-2,0.031-0.031-0.031-0.032c-1.103-4.051-2.319-8.388-3.344-12.093l-0.031-0.063v-0.031l-0.219-0.187c-0.017-0.014-0.046-0.018-0.062-0.032-3.448-2.836-5.605-6.6535-11.626-7.8435h-0.031l-25-1zm41.781,26.968l-1.187-1.375-0.937,1.219,1.218,1.437,0.906-1.218c-0.005-0.02,0.006-0.043,0-0.063zm-26.906-4.75l-0.031,0.031c0.134,0.505,0.25,0.978,0.406,1.532l0.063,0.094c-0.171-0.603-0.292-1.103-0.438-1.657zm-13-21.875l23.094,0.9063h0.031c5.794,1.1567,7.948,4.7535,11.313,7.5935h-24.719l-5.844-6.1872c-1.029-1.0897-2.371-1.8956-3.875-2.3126zm28.688,9.9058c0.095-0.016,0.203,0.057,0.25,0.157,0.046,0.1,0.001,0.202-0.094,0.219-0.095,0.016-0.203-0.057-0.25-0.157s-0.001-0.202,0.094-0.219zm2.312,0.532c0.095-0.017,0.235,0.056,0.282,0.156,0.046,0.1,0,0.202-0.094,0.219-0.095,0.016-0.235-0.057-0.282-0.157-0.046-0.099,0-0.202,0.094-0.218zm-4.25,0.156c0.095-0.016,0.204,0.025,0.25,0.125,0.047,0.1,0.001,0.234-0.094,0.25-0.094,0.017-0.172-0.088-0.218-0.187-0.047-0.1-0.032-0.172,0.062-0.188zm4.188,0.375l0.156,0.063-0.938,3.343,2.876,1.344-0.032,0.125-2.875-1.312-0.219,0.75-0.124-0.063,0.187-0.781-0.906-0.406,0.031-0.157,0.906,0.438,0.938-3.344zm-10.782,0.031c1.043,0.015,2.396,1.007,2.75,2.156,0.631,2.043-1.191,2.852-2.531,4.782-2.993-2.037-4.869-2.739-5.5-4.782-0.63-2.042,2.259-3.537,4,0-0.161-1.594,0.47-2.167,1.281-2.156zm12.938,0.969c0.095-0.017,0.203,0.056,0.25,0.156s0.001,0.203-0.094,0.219-0.203-0.056-0.25-0.156c-0.046-0.1-0.001-0.203,0.094-0.219zm-7.375,0.219c0.095-0.017,0.203,0.056,0.25,0.156s0.032,0.202-0.063,0.219c-0.094,0.016-0.234-0.057-0.281-0.157-0.047-0.099-0.001-0.202,0.094-0.218zm8.656,1.937c0.095-0.016,0.204,0.057,0.25,0.157,0.047,0.099,0.032,0.202-0.062,0.218-0.095,0.017-0.204-0.056-0.25-0.156-0.047-0.1-0.033-0.202,0.062-0.219zm-8.531,0.219c0.095-0.016,0.235,0.088,0.281,0.188,0.047,0.099,0.001,0.139-0.093,0.156-0.095,0.016-0.204,0.006-0.25-0.094-0.047-0.1-0.033-0.234,0.062-0.25zm8.688,1.938c0.094-0.017,0.203,0.056,0.25,0.156,0.046,0.1,0,0.202-0.094,0.218-0.095,0.017-0.172-0.056-0.219-0.156s-0.032-0.202,0.063-0.218zm-7.407,0.187c0.095-0.017,0.204,0.056,0.25,0.156,0.047,0.1,0.033,0.203-0.062,0.219s-0.235-0.056-0.281-0.156c-0.047-0.1-0.001-0.203,0.093-0.219zm6.344,1.406c0.095-0.016,0.235,0.057,0.281,0.157,0.047,0.099,0.001,0.202-0.094,0.218-0.094,0.017-0.234-0.056-0.281-0.156-0.046-0.1-0.001-0.202,0.094-0.219zm-4.25,0.125c0.095-0.016,0.203,0.057,0.25,0.156,0.047,0.1,0.032,0.203-0.063,0.219-0.094,0.017-0.234-0.056-0.281-0.156-0.046-0.1-0.001-0.202,0.094-0.219zm2.281,0.532c0.095-0.017,0.235,0.056,0.282,0.156,0.046,0.1,0,0.171-0.094,0.187-0.095,0.017-0.204-0.025-0.25-0.125-0.047-0.1-0.033-0.202,0.062-0.218zm-7.5,1.937l-0.937,1.219,1.219,1.406,0.937-1.25-1.219-1.375zm2.906,0.25l-0.968,1.25,1.218,1.375,0.938-1.219-1.188-1.406zm2.813,0.219l-0.906,1.25,1.187,1.437,1-1.219-1.281-1.468zm2.906,0.281l-0.937,1.25,1.218,1.406,0.938-1.25-1.219-1.406zm-18.437,0.094l-0.969,1.25,1.219,1.406,0.937-1.25-1.187-1.406zm21.281,0.187l-0.906,1.188,1.219,1.437,0.906-1.219-1.219-1.406zm-18.437,0.063l-0.938,1.219,1.219,1.406,0.937-1.25-1.218-1.375zm2.874,0.25l-0.906,1.25,1.188,1.375,0.937-1.219-1.219-1.406zm2.876,0.281l-0.969,1.188,1.25,1.437,0.906-1.219-1.187-1.406zm2.843,0.25l-0.906,1.219,1.187,1.437,0.938-1.25-1.219-1.406zm2.875,0.25l-0.937,1.219,1.187,1.406,0.969-1.187-1.219-1.438zm2.875,0.281l-0.937,1.219,1.187,1.406,0.938-1.25-1.188-1.375zm2.875,0.219l-0.937,1.219,1.219,1.437,0.937-1.218-1.219-1.438zm-18.468,0.094l-0.938,1.218,1.219,1.407,0.937-1.219-1.218-1.406zm21.343,0.187l-0.937,1.219,1.187,1.406,0.969-1.187-1.219-1.438zm-18.469,0.094l-0.937,1.219,1.219,1.406,0.937-1.25-1.219-1.375zm-5.187,0.125l-0.063,0.062c0.027,0.025,0.068,0.038,0.094,0.063,0.093,0.364,0.188,0.755,0.282,1.125l0.374-0.5-0.687-0.75zm0.313,1.25l-0.032,0.031c0.063,0.247,0.125,0.502,0.188,0.75l0.031-0.031c-0.063-0.249-0.125-0.503-0.187-0.75zm0.187,0.75c0.107,0.424,0.204,0.852,0.313,1.281l0.531,0.594,0.937-1.25-1.187-1.406-0.594,0.781zm0.313,1.281l-0.063-0.062c0.088,0.347,0.194,0.68,0.281,1.031-0.075-0.32-0.137-0.645-0.218-0.969zm7.25-3.187l-0.938,1.218,1.188,1.407,0.937-1.188-1.187-1.437zm2.843,0.281l-0.906,1.219,1.187,1.406,0.938-1.219-1.219-1.406zm-17.375,0.219c-0.003,0.02,0.003,0.042,0,0.062,0.015-0.004,0.049,0.004,0.063,0l-0.063-0.062zm20.25,0.031l-0.937,1.25,1.219,1.375,0.937-1.219-1.219-1.406zm2.906,0.281l-1,1.219,1.219,1.406,0.938-1.25-1.157-1.375zm2.813,0.219l-0.937,1.219,1.218,1.437,0.969-1.219-1.25-1.437zm2.906,0.281l-0.937,1.219,1.218,1.406,0.938-1.219-1.219-1.406zm-18.469,0.094l-0.937,1.219,1.219,1.406,0.937-1.219-1.219-1.406zm2.876,0.219l-0.938,1.25,1.188,1.375,0.968-1.219-1.218-1.406zm2.843,0.281l-0.906,1.25,1.187,1.375,0.938-1.219-1.219-1.406zm2.875,0.25l-0.937,1.219,1.25,1.437,0.906-1.25-1.219-1.406zm2.875,0.281l-0.937,1.188,1.187,1.437,0.938-1.218-1.188-1.407zm2.844,0.219l-0.937,1.25,1.218,1.406,0.938-1.218-1.219-1.438zm2.906,0.281l-0.937,1.25,1.187,1.375,0.938-1.218-1.188-1.407zm-18.469,0.063l-0.937,1.218,1.219,1.438,0.937-1.219-1.219-1.437zm21.344,0.187l-0.968,1.219,1.218,1.438,0.938-1.219-1.188-1.438zm-18.468,0.094l-0.938,1.219,1.219,1.406,0.937-1.25-1.218-1.375zm2.874,0.25l-0.968,1.25,1.218,1.375,0.938-1.219-1.188-1.406zm18.219,0.219l-0.719,0.906,1.219,1.406,0.094-0.094c-0.199-0.74-0.398-1.484-0.594-2.218zm-15.375,0.062l-0.937,1.188,1.219,1.437,0.937-1.25-1.219-1.375zm2.875,0.219l-0.906,1.25,1.156,1.375,0.969-1.188-1.219-1.437zm2.844,0.281l-0.937,1.219,1.218,1.406,0.938-1.25-1.219-1.375zm2.906,0.282l-0.969,1.218,1.219,1.375,0.938-1.219-1.188-1.374zm-18.469,0.031l-0.218,0.25v0.031c0.19,0.763,0.405,1.512,0.594,2.281l0.843-1.125-1.219-1.437zm0.376,2.562l-0.032,0.031c0.107,0.438,0.207,0.875,0.313,1.313l0.062,0.063c-0.113-0.47-0.229-0.938-0.343-1.407zm0.343,1.407c0.124,0.51,0.254,1.021,0.375,1.531l0.438-0.563-0.813-0.968zm0.375,1.531l-0.031,0.031c0.059,0.248,0.098,0.503,0.156,0.75l0.031-0.062c-0.055-0.238-0.099-0.481-0.156-0.719zm0.156,0.719c0.085,0.358,0.168,0.705,0.25,1.062l0.657,0.75,0.969-1.188-1.188-1.437-0.688,0.813zm0.25,1.062l-0.062-0.094c0.087,0.373,0.165,0.724,0.25,1.094l0.062,0.094c-0.084-0.37-0.163-0.722-0.25-1.094zm0.25,1.094c0.01,0.042,0.022,0.082,0.032,0.125l0.031-0.063-0.063-0.062zm0.032,0.125l-0.032,0.031c0.058,0.252,0.1,0.5,0.157,0.75l0.031-0.062c-0.054-0.241-0.101-0.477-0.156-0.719zm0.156,0.719c0.17,0.754,0.342,1.513,0.5,2.25l0.969-1.126-1.188-1.437-0.281,0.313zm0.5,2.25l-0.031,0.062c0.085,0.396,0.169,0.798,0.25,1.188l0.093,0.093c-0.091-0.441-0.215-0.893-0.312-1.343zm0.312,1.343c0.116,0.556,0.206,1.117,0.313,1.657l0.531-0.657-0.844-1zm0.313,1.657l-0.031,0.031c0.049,0.251,0.077,0.502,0.125,0.75l0.062-0.063c-0.046-0.237-0.108-0.477-0.156-0.718zm0.156,0.718c0.054,0.278,0.106,0.54,0.157,0.813l0.75,0.906,1-1.187-1.188-1.438-0.719,0.906zm0.157,0.813l-0.094-0.094c0.07,0.378,0.154,0.759,0.218,1.125l0.063,0.094c-0.064-0.364-0.118-0.75-0.187-1.125zm0.187,1.125c0.016,0.092,0.047,0.19,0.063,0.281,0.003,0.019-0.004,0.044,0,0.063l0.124-0.126-0.187-0.218zm0.063,0.344l-0.032,0.062c0.042,0.25,0.084,0.546,0.125,0.812l0.031-0.031c-0.043-0.275-0.082-0.587-0.124-0.843zm0.124,0.843c0.095,0.601,0.191,1.195,0.282,1.875l0.156,0.219,1.062-1.219-1.093-1.375-0.407,0.5zm0.282,1.875l-0.063-0.062c0.051,0.384,0.108,0.812,0.157,1.218l0.031-0.031c-0.045-0.373-0.078-0.771-0.125-1.125zm0.125,1.125c0.09,0.746,0.173,1.5,0.25,2.313l0.906-0.969-1.125-1.406-0.031,0.062zm0.25,2.313l-0.031,0.031c0.045,0.484,0.085,0.996,0.124,1.5l0.032,0.031c-0.042-0.529-0.077-1.055-0.125-1.562zm0.125,1.562c0.041,0.528,0.092,1.047,0.125,1.594l0.625-0.656-0.75-0.938zm0.125,1.594l-0.031,0.031c0.015,0.266,0.017,0.543,0.031,0.813l0.031-0.032c-0.014-0.267-0.015-0.549-0.031-0.812zm0.031,0.812c0.01,0.186,0.023,0.376,0.031,0.563l0.813,1.031,1.156-1.187-1.062-1.407-0.938,1zm0.031,0.563l-0.062-0.094c0.014,0.314,0.051,0.619,0.062,0.938l0.063,0.062c-0.011-0.305-0.049-0.605-0.063-0.906zm0.063,0.906c0.01,0.284,0.024,0.557,0.031,0.844l0.344-0.344-0.375-0.5zm16.531-28.875l-0.937,1.219,1.187,1.437,1-1.218-1.25-1.438zm-18.437,0.094l-0.938,1.219,1.219,1.406,0.937-1.219-1.218-1.406zm21.312,0.156l-0.938,1.25,1.219,1.406,0.938-1.25-1.219-1.406zm-18.438,0.094l-0.968,1.25,1.218,1.406,0.938-1.25-1.188-1.406zm2.844,0.25l-0.937,1.219,1.219,1.406,0.937-1.219-1.219-1.406zm2.875,0.25l-0.906,1.25,1.187,1.406,0.938-1.25-1.219-1.406zm2.875,0.281l-0.968,1.188,1.25,1.437,0.906-1.218-1.188-1.407zm2.844,0.281l-0.938,1.188,1.219,1.438,0.938-1.25-1.219-1.376zm2.875,0.219l-0.937,1.219,1.187,1.406,0.969-1.187-1.219-1.438zm-18.437,0.094l-0.938,1.187,1.156,1.438,1-1.219-1.218-1.406zm21.312,0.187l-0.938,1.219,1.188,1.407,0.938-1.25-1.188-1.376zm-18.438,0.063l-0.937,1.219,1.187,1.437,0.969-1.219-1.219-1.437zm21.313,0.156l-0.937,1.25,1.218,1.438,0.5-0.657c-0.144-0.542-0.292-1.085-0.437-1.624l-0.344-0.407zm-18.469,0.094l-0.937,1.25,1.219,1.375,0.937-1.219-1.219-1.406zm2.875,0.281l-0.937,1.219,1.218,1.406,0.938-1.25-1.219-1.375zm2.875,0.25l-0.968,1.219,1.218,1.406,0.938-1.219-1.188-1.406zm2.844,0.25l-0.906,1.219,1.187,1.406,0.938-1.187-1.219-1.438zm2.875,0.25l-0.937,1.25,1.218,1.375,0.938-1.219-1.219-1.406zm2.906,0.282l-1,1.218,1.219,1.406,0.938-1.218-1.157-1.406zm-18.469,0.062l-1,1.219,1.188,1.406,0.969-1.187-1.157-1.438zm21.282,0.156l-0.938,1.25,1.25,1.438,0.938-1.25-1.25-1.438zm-18.438,0.094l-0.968,1.25,1.187,1.406,1-1.25-1.219-1.406zm2.875,0.281l-0.969,1.219,1.188,1.406,1-1.218-1.219-1.407zm2.875,0.219l-0.937,1.25,1.187,1.406,0.969-1.25-1.219-1.406zm2.844,0.281l-0.938,1.219,1.219,1.406,0.938-1.218-1.219-1.407zm2.875,0.25l-0.937,1.219,1.25,1.438,0.906-1.25-1.219-1.407zm9.219,0l-0.282,0.375,0.563,0.656c-0.091-0.345-0.19-0.686-0.281-1.031zm-35.063,0.094c-0.075,0.034-0.146,0.092-0.219,0.125,0.113,6.225,0.449,11.262,3.094,21.844h0.25c-2.674-10.672-3.027-15.738-3.125-21.969zm-25.187,0.031c0.005,9.439,1.801,18.994,3.968,27.406,0.036-0.147,0.075-0.3,0.126-0.437-2.105-8.281-3.832-17.646-3.844-26.875-0.08-0.035-0.171-0.057-0.25-0.094zm53.906,0.156l-0.969,1.188,1.219,1.438,0.938-1.219-1.188-1.407zm2.844,0.219l-0.938,1.25,1.25,1.438,0.938-1.219-1.25-1.469zm-18.469,0.125l-0.969,1.188,1.188,1.437,0.968-1.25-1.187-1.375zm-36.469,0.094c0.006,8.522,0.013,10.977,2,19.406h0.25c-1.988-8.411-2.008-10.854-2.031-19.344-0.081-0.015-0.141-0.045-0.219-0.062zm57.844,0.062l-0.938,1.25,1.188,1.376,0.906-1.188c-0.005-0.02,0.005-0.043,0-0.062l-1.156-1.376zm-18.5,0.063l-0.969,1.219,1.188,1.437,0.969-1.219-1.188-1.437zm2.875,0.281l-0.969,1.219,1.188,1.406,0.968-1.25-1.187-1.375zm2.875,0.25l-0.969,1.25,1.188,1.375,1-1.219-1.219-1.406zm2.875,0.282l-0.969,1.187,1.188,1.437,1-1.218-1.219-1.406zm2.875,0.218l-0.938,1.25,1.157,1.375,1-1.187-1.219-1.438zm2.844,0.282l-0.938,1.218,1.25,1.406,0.906-1.187-1.218-1.437zm-18.5,0.093l-1,1.188,1.187,1.406,1-1.187-1.187-1.407zm21.406,0.188l-0.969,1.219,1.219,1.374,0.938-1.218-1.188-1.375zm-18.531,0.031l-1,1.25,1.187,1.375,1-1.187-1.187-1.438zm2.875,0.281l-1,1.219,1.187,1.406,1-1.218-1.187-1.407zm18.281,0.188l-0.75,0.937,1.25,1.438,0.063-0.063c-0.188-0.772-0.367-1.544-0.563-2.312zm-15.406,0.062l-0.969,1.25,1.188,1.407,0.968-1.25-1.187-1.407zm2.875,0.25l-0.969,1.219,1.187,1.406,0.969-1.218-1.187-1.407zm2.875,0.25l-0.969,1.25,1.188,1.407,0.968-1.25-1.187-1.407zm2.875,0.281l-0.969,1.188,1.219,1.438,0.937-1.219-1.187-1.407zm2.875,0.282l-0.969,1.187,1.188,1.438,0.968-1.25-1.187-1.375zm-18.563,0.031l-0.968,1.25,1.156,1.375,1-1.188-1.188-1.437zm21.438,0.187l-0.969,1.219,1.219,1.469,1-1.25-1.25-1.438zm-18.563,0.094l-0.969,1.188,1.157,1.437,1-1.219-1.188-1.406zm2.907,0.219l-1,1.25,1.187,1.437,0.969-1.25-1.156-1.437zm2.874,0.281l-1,1.219,1.188,1.406,1-1.219-1.188-1.406zm2.876,0.282l-1,1.218,1.187,1.406,1-1.25-1.187-1.374zm2.874,0.25l-0.968,1.187,1.187,1.469,0.969-1.25-1.188-1.406zm2.876,0.25l-0.938,1.218,1.156,1.406,0.969-1.187-1.187-1.437zm-18.594,0.093l-1.032,1.219,1.188,1.375,1-1.219-1.156-1.375zm21.468,0.157l-0.968,1.25,1.187,1.374,0.969-1.187-1.188-1.437zm-18.562,0.093l-1.031,1.188,1.156,1.406,1.031-1.187-1.156-1.407zm21.469,0.188l-1,1.219,1.187,1.406,0.469-0.594c-0.128-0.574-0.272-1.147-0.406-1.719l-0.25-0.312zm-18.594,0.062l-1,1.219,1.156,1.406,1.031-1.187-1.187-1.438zm2.875,0.25l-1,1.25,1.188,1.375,1-1.218-1.188-1.407zm2.875,0.281l-0.969,1.219,1.156,1.407,1-1.219-1.187-1.407zm2.875,0.219l-0.969,1.25,1.188,1.438,0.969-1.25-1.188-1.438zm2.906,0.281l-1,1.219,1.188,1.407,0.968-1.188-1.156-1.438zm2.875,0.25l-1,1.219,1.219,1.438,0.969-1.25-1.188-1.407zm-18.625,0.063l-1.031,1.219,1.156,1.437,1.031-1.219-1.156-1.437zm21.5,0.219l-1,1.187,1.188,1.438,1-1.219-1.188-1.406zm-18.625,0.062l-1,1.219,1.157,1.406,1-1.187-1.157-1.438zm2.907,0.25l-1.032,1.188,1.156,1.437,1.032-1.219-1.156-1.406zm2.906,0.25l-1.032,1.219,1.157,1.437,1.031-1.218-1.156-1.438zm2.875,0.25l-1,1.25,1.156,1.375,1-1.219-1.156-1.406zm2.875,0.282l-1,1.218,1.156,1.406,1.031-1.218-1.187-1.406zm9.187,0.093l-0.219,0.281,0.376,0.469c-0.053-0.25-0.103-0.5-0.157-0.75zm-6.312,0.188l-0.969,1.187,1.188,1.438,0.968-1.25-1.187-1.375zm2.875,0.219l-0.938,1.25,1.156,1.374,0.969-1.187-1.187-1.437zm-18.656,0.093l-1.032,1.219,1.156,1.406,1.032-1.25-1.156-1.375zm21.531,0.188l-0.969,1.219,1.188,1.406,0.812-1c0.05,0.26,0.077,0.52,0.125,0.781l-0.531,0.656,0.844,1.063c0.078,0.472,0.179,0.933,0.25,1.406l-0.907,1.031,1.188,1.438,0.031-0.031c0.039,0.332,0.059,0.667,0.094,1l-0.094-0.126-1.031,1.25,1.125,1.376,0.218-0.25c0.034,0.489,0.072,0.979,0.094,1.468l-0.281-0.344-1.063,1.219,1.094,1.438,0.313-0.344c0.005,0.5-0.023,1-0.031,1.5l-0.25-0.313-1.126,1.219,1.094,1.375,0.188-0.187c-0.024,0.389-0.062,0.772-0.094,1.156l-0.094-0.125-1.156,1.219,0.969,1.312c-0.049,0.37-0.1,0.731-0.157,1.094l-1,1,0.657,0.937c-0.051,0.25-0.071,0.505-0.125,0.75l-0.938-1.25-1.218,1.157,0.968,1.343,1.125-1.031c-0.071,0.314-0.141,0.63-0.219,0.938l-0.562,0.531,0.312,0.438c-0.065,0.232-0.149,0.458-0.218,0.687l-0.5-0.719-1.313,1.156,0.938,1.376,0.406-0.344c-0.155,0.424-0.301,0.848-0.469,1.25l-0.062-0.094-1.375,1.125,0.562,0.813c-0.11,0.216-0.229,0.416-0.343,0.624l-0.688-1.062-1.438,1.094,0.844,1.281,0.938-0.687c-0.326,0.557-0.677,1.09-1.032,1.593l-0.093-0.125-1.531,1.063,0.406,0.656c-0.139,0.162-0.295,0.313-0.438,0.469l-0.468-0.813-1.594,1.031,0.687,1.126c-0.154,0.138-0.311,0.273-0.469,0.406-0.9,0.758-1.848,1.422-2.843,2l-0.969,0.468,0.031,0.063c-0.185,0.096-0.374,0.191-0.562,0.281l-0.031-0.062-1.844,0.75,0.062,0.094c-0.214,0.082-0.439,0.141-0.656,0.218l-0.031-0.062-1.907,0.687c-0.208,0.058-0.414,0.134-0.624,0.188v-0.031l-0.407,0.124h-0.031c-1.291,0.315-2.618,0.554-3.969,0.75l1.625-0.406-0.5-0.937-1.968,0.531,0.406,0.875c-0.242,0.033-0.476,0.063-0.719,0.094l-0.406-0.813-2.031,0.438,0.312,0.594c-0.228,0.021-0.458,0.042-0.688,0.062l-0.312-0.562-2.125,0.312,0.25,0.438c-0.24,0.015-0.479,0.047-0.719,0.062l-0.218-0.406-2.126,0.218,0.157,0.313c-0.24,0.012-0.479,0.019-0.719,0.031l-0.156-0.312-2.188,0.094,0.188,0.312c-0.229,0.011-0.459,0.02-0.688,0.031l-0.187-0.312-2.219-0.031,0.312,0.468c-0.509,0.031-1.024,0.058-1.531,0.094h-0.031l-1.156-0.094,0.031,0.063-0.687-0.219c-0.329,0.113-0.66,0.219-1,0.312-0.011,0-0.021,0.001-0.032,0-4.813-0.321-8.063-2.813-10.594-6.812-0.786-0.803-1.971-3.64-2.062-3.719-0.063-0.01-0.126-0.021-0.188-0.031,0.628,1.401,1.293,2.708,2.032,3.875,2.562,4.049,5.906,6.619,10.812,6.937l0.032-0.124v0.124h0.031c15.264-1.597,33.192,1.496,39.656-17.187,1.155-3.46,1.849-7.39,2.063-11.625l0.093-0.062c-0.023-0.03-0.039-0.064-0.062-0.094,0.248-5.52-0.472-11.04-1.563-16.5l-0.937-1.125zm-38.281,46.031c0.14-0.048,0.268-0.104,0.406-0.156l-0.063-0.063c-0.156,0.059-0.309,0.134-0.469,0.188l0.126,0.031zm0.406-0.156l0.125,0.156,2.187,0.156-0.344-0.468-1.343-0.094c-0.21,0.089-0.41,0.169-0.625,0.25zm0.625-0.25c0.093-0.04,0.188-0.084,0.281-0.125h-0.125c-0.111,0.048-0.232,0.078-0.344,0.125h0.188zm0.281-0.125l0.938,0.031-0.25-0.375c-0.222,0.112-0.459,0.241-0.688,0.344zm0.688-0.344c0.246-0.124,0.48-0.239,0.718-0.375h-0.125c-0.205,0.116-0.414,0.237-0.625,0.344l0.032,0.031zm0.718-0.375l1.938-0.062-0.375-0.688-0.375,0.031c-0.382,0.263-0.783,0.488-1.188,0.719zm1.188-0.719c0.266-0.183,0.525-0.395,0.781-0.593l-0.031-0.063c-0.169,0.131-0.358,0.251-0.532,0.375l0.032,0.031h-0.063c-0.123,0.088-0.25,0.166-0.375,0.25h0.188zm0.781-0.593l0.156,0.281,2.125-0.281-0.406-0.782-1.125,0.156c-0.247,0.215-0.492,0.425-0.75,0.626zm0.75-0.626c0.135-0.117,0.274-0.222,0.406-0.343l-0.156,0.031h-0.031c-0.122,0.11-0.219,0.237-0.344,0.344l0.125-0.032zm0.406-0.343l0.594-0.094-0.187-0.313c-0.138,0.135-0.266,0.277-0.407,0.407zm0.407-0.407c0.167-0.163,0.338-0.329,0.5-0.5l-0.032-0.062c-0.156,0.165-0.338,0.31-0.5,0.469l0.032,0.093zm0.5-0.5l0.343,0.688,2.063-0.469-0.5-0.937-1.625,0.406c-0.093,0.102-0.186,0.212-0.281,0.312zm0.281-0.312c0.142-0.156,0.299-0.308,0.437-0.469l-0.156,0.031c-0.137,0.159-0.265,0.316-0.406,0.469l0.125-0.031zm0.437-0.469l1.032-0.281-0.313-0.625c-0.235,0.306-0.47,0.616-0.719,0.906zm0.719-0.906c0.264-0.344,0.503-0.7,0.75-1.063l-0.063,0.032c-0.231,0.338-0.472,0.678-0.718,1l0.031,0.031zm0.75-1.063l1.406-0.531-0.5-0.906c-0.287,0.49-0.591,0.974-0.906,1.437zm0.906-1.437c0.19-0.324,0.385-0.634,0.563-0.969l-0.125,0.063c-0.152,0.282-0.308,0.569-0.469,0.843l0.031,0.063zm0.563-0.969l1.468-0.687-0.624-1.094c-0.273,0.607-0.537,1.203-0.844,1.781zm0.844-1.781c0.126-0.281,0.256-0.557,0.374-0.844l-0.062,0.031c-0.103,0.247-0.235,0.477-0.344,0.719v0.031l0.032,0.063zm0.374-0.844l1.563-0.937-0.75-1.188c-0.245,0.72-0.525,1.432-0.813,2.125zm20.25,5.813l-0.718-1.219-1.656,0.937,0.718,1.219,1.656-0.937zm-12.218-39.563l-1.032,1.188,1.157,1.406,1.031-1.187-1.156-1.407zm2.875,0.25l-1,1.219,1.156,1.406,1-1.187-1.156-1.438zm2.906,0.281l-1.031,1.219,1.156,1.375,1.031-1.218-1.156-1.376zm2.906,0.25l-1.031,1.219,1.156,1.407,1.032-1.219-1.157-1.407zm2.875,0.25l-1,1.219,1.156,1.438,1-1.25-1.156-1.407zm2.906,0.25l-1.031,1.25,1.157,1.376,1.031-1.188-1.157-1.438zm-18.718,0.094l-1.032,1.219,1.126,1.375,1.062-1.219-1.156-1.375zm21.594,0.188l-1,1.187,1.187,1.438,1-1.219-1.187-1.406zm-18.719,0.031l-1,1.219,1.125,1.437,1.031-1.219-1.156-1.437zm2.906,0.281l-1.031,1.219,1.156,1.406,1.031-1.187-1.156-1.438zm2.906,0.282l-1.031,1.187,1.156,1.406,1.032-1.219-1.157-1.374zm2.875,0.218l-1,1.219,1.156,1.437,1-1.218-1.156-1.438zm2.906,0.282l-1.031,1.218,1.157,1.406,1.031-1.218-1.157-1.406zm2.907,0.25l-1.031,1.25,1.156,1.374,1.031-1.218-1.156-1.406zm2.875,0.281l-1,1.187,1.187,1.438,1-1.219-1.187-1.406zm-18.75,0.031l-1.032,1.219,1.126,1.406,1.062-1.187-1.156-1.438zm21.656,0.188l-1,1.25,1.156,1.374,1-1.187-1.156-1.437zm-18.719,0.093l-1.062,1.219,1.125,1.406,1.062-1.25-1.125-1.375zm2.875,0.281l-1.031,1.188,1.156,1.375,1.031-1.187-1.156-1.376zm2.906,0.219l-1.031,1.219,1.157,1.406,1.031-1.187-1.157-1.438zm2.907,0.281l-1.031,1.219,1.156,1.407,1.031-1.25-1.156-1.376zm2.875,0.25l-1,1.25,1.156,1.376,1.031-1.219-1.187-1.407zm2.906,0.25l-1.031,1.219,1.156,1.438,1.031-1.219-1.156-1.438zm-18.812,0.063l-1.094,1.219,1.125,1.375,1.093-1.188-1.124-1.406zm21.718,0.187l-1.031,1.25,1.156,1.376,1.031-1.188-1.156-1.438zm-18.781,0.094l-1.063,1.219,1.126,1.375,1.062-1.219-1.125-1.375zm2.906,0.219l-1.062,1.219,1.125,1.437,1.062-1.219-1.125-1.437zm2.938,0.281l-1.094,1.219,1.156,1.406,1.063-1.187-1.125-1.438zm2.906,0.282l-1.063,1.187,1.126,1.406,1.062-1.219-1.125-1.374zm2.875,0.218l-1.031,1.219,1.125,1.437,1.062-1.218-1.156-1.438zm2.906,0.282l-1.031,1.218,1.125,1.406,1.062-1.187-1.156-1.437zm2.906,0.25l-1.031,1.25,1.125,1.374,1.063-1.218-1.157-1.406zm-18.843,0.093l-1.094,1.188,1.063,1.406,1.093-1.219-1.062-1.375zm21.719,0.188l-1,1.187,1.187,1.438,0.969-1.219-1.156-1.406zm-18.844,0.031l-1.063,1.219,1.125,1.437,1.094-1.218-1.156-1.438zm2.968,0.281l-1.093,1.219,1.093,1.375,1.126-1.219-1.126-1.375zm2.907,0.281l-1.063,1.157,1.094,1.406,1.094-1.187-1.125-1.376zm2.906,0.219l-1.063,1.219,1.126,1.406,1.062-1.187-1.125-1.438zm2.906,0.281l-1.062,1.219,1.125,1.375,1.062-1.218-1.125-1.376zm2.907,0.25l-1.063,1.25,1.125,1.376,1.094-1.219-1.156-1.407zm-18.969,0.063l-1.063,1.187,1.032,1.407,1.156-1.219-1.125-1.375zm21.875,0.187l-1.032,1.219,1.126,1.438,1.062-1.219-1.156-1.438zm-18.938,0.032l-1.094,1.218,1.094,1.438,1.125-1.219-1.125-1.437zm2.969,0.312l-1.094,1.188,1.094,1.406,1.094-1.219-1.094-1.375zm2.906,0.219l-1.093,1.219,1.124,1.437,1.094-1.219-1.125-1.437zm2.938,0.281l-1.094,1.219,1.094,1.375,1.093-1.188-1.093-1.406zm2.906,0.282l-1.094,1.218,1.125,1.375,1.094-1.219-1.125-1.374zm2.906,0.218l-1.062,1.219,1.125,1.437,1.094-1.218-1.157-1.438zm2.938,0.282l-1.063,1.218,1.094,1.375,1.094-1.156-1.125-1.437zm-19.031,0.031l-1.126,1.219,1.094,1.374,1.125-1.187-1.093-1.406zm21.937,0.25l-1.063,1.219,1.126,1.374,1.062-1.218-1.125-1.375zm-18.969,0.031l-1.156,1.188,1.094,1.406,1.125-1.219-1.063-1.375zm2.906,0.219l-1.124,1.219,1.124,1.437,1.126-1.219-1.126-1.437zm2.969,0.281l-1.125,1.219,1.094,1.406,1.125-1.219-1.094-1.406zm2.875,0.281l-1.062,1.188,1.094,1.375,1.124-1.156-1.156-1.407zm2.969,0.25l-1.094,1.219,1.094,1.375,1.094-1.187-1.094-1.407zm2.906,0.281l-1.093,1.219,1.124,1.375,1.094-1.218-1.125-1.376zm2.938,0.25l-1.094,1.219,1.094,1.407,1.125-1.219-1.125-1.407zm-19.094,0.032l-1.125,1.156,1.031,1.438,1.188-1.219-1.094-1.375zm2.937,0.25l-1.124,1.187,1.093,1.438,1.157-1.219-1.126-1.406zm3,0.281l-1.156,1.219,1.094,1.375,1.125-1.219-1.063-1.375zm2.938,0.25l-1.125,1.187,1.063,1.438,1.124-1.219-1.062-1.406zm2.938,0.25l-1.126,1.219,1.063,1.375,1.125-1.157-1.062-1.437zm2.906,0.281l-1.094,1.219,1.062,1.375,1.157-1.188-1.125-1.406zm2.937,0.25l-1.093,1.219,1.062,1.406,1.125-1.219-1.094-1.406zm-19.187,0.032l-1.156,1.156,1.031,1.406,1.187-1.188-1.062-1.374zm2.968,0.25l-1.156,1.187,1.063,1.406,1.156-1.187-1.063-1.406zm19.126,0l-1.094,1.218,1.125,1.375,1.093-1.187-1.124-1.406zm-16.126,0.281l-1.218,1.187,1.062,1.375,1.188-1.187-1.032-1.375zm2.907,0.25l-1.157,1.187,1.094,1.438,1.156-1.219-1.093-1.406zm2.969,0.281l-1.126,1.188,1.032,1.406,1.187-1.219-1.093-1.375zm2.906,0.25l-1.094,1.188,1.062,1.437,1.157-1.219-1.125-1.406zm-16.969,0.156l-0.063,0.032c0.011,0.266-0.006,0.542,0,0.812l0.063-0.062c-0.007-0.26,0.011-0.525,0-0.782zm0,0.782c0.011,0.404,0.031,0.808,0.031,1.218l0.469,0.656,1.187-1.156-1-1.406-0.687,0.688zm0.031,1.218l-0.062-0.094c0,0.311,0.005,0.625,0,0.938l0.031,0.062c0.006-0.304,0.031-0.603,0.031-0.906zm-0.031,0.906c-0.001,0.063,0.001,0.125,0,0.188l0.094-0.062-0.094-0.126zm0,0.188l-0.063,0.062c-0.006,0.269,0.012,0.543,0,0.813l0.032-0.031c0.011-0.285,0.025-0.561,0.031-0.844zm-0.031,0.844c-0.023,0.571-0.051,1.142-0.094,1.718l0.25,0.407,1.312-1.188-1-1.375-0.468,0.438zm-0.094,1.718l-0.031-0.031c-0.037,0.494-0.073,0.973-0.125,1.469l0.031-0.031c0.049-0.469,0.09-0.94,0.125-1.407zm-0.125,1.407c-0.074,0.706-0.144,1.418-0.25,2.125l0.094,0.156,1.375-1.125-0.969-1.344-0.25,0.188zm-0.25,2.125l-0.063-0.063c-0.06,0.407-0.147,0.814-0.218,1.219l0.094-0.062c0.063-0.366,0.132-0.727,0.187-1.094zm-0.187,1.094c-0.13,0.746-0.302,1.48-0.469,2.218l0.062,0.063,1.469-1.094-0.906-1.313-0.156,0.126zm-0.469,2.218l-0.031-0.062c-0.077,0.336-0.166,0.666-0.25,1l0.093-0.063c0.072-0.287,0.122-0.585,0.188-0.875zm-0.188,0.875c-0.194,0.781-0.417,1.552-0.656,2.313l1.531-1-0.812-1.344-0.063,0.031zm-0.656,2.313l-0.063-0.094c-0.098,0.313-0.175,0.629-0.281,0.938l0.094-0.063c0.088-0.259,0.168-0.519,0.25-0.781zm21.937-15.594l-1.124,1.219,1.093,1.375,1.125-1.156-1.094-1.438zm-16.312,0.281l-1.188,1.188,1.032,1.375,1.218-1.156-1.062-1.407zm19.25,0l-1.125,1.219,1.094,1.375,1.125-1.219-1.094-1.375zm-16.281,0.281l-1.188,1.157,1.031,1.406,1.219-1.187-1.062-1.376zm2.969,0.25l-1.188,1.188,1.062,1.406,1.188-1.187-1.062-1.407zm2.968,0.282l-1.156,1.187,1.062,1.375,1.157-1.187-1.063-1.375zm2.969,0.25l-1.156,1.187,1.031,1.407,1.188-1.188-1.063-1.406zm2.937,0.312l-1.156,1.156,1.063,1.376,1.125-1.157-1.032-1.375zm-16.406,0.219l-1.187,1.125,1,1.406,1.219-1.187-1.032-1.344zm19.344,0.031l-1.125,1.188,1.063,1.375,1.156-1.188-1.094-1.375zm2.969,0.219l-1.157,1.219,1.063,1.406,1.156-1.188-1.062-1.437zm-19.313,0.031l-1.218,1.125,1,1.407,1.218-1.188-1-1.344zm2.969,0.25l-1.219,1.188,1.063,1.375,1.187-1.157-1.031-1.406zm3,0.282l-1.25,1.187,1.031,1.375,1.219-1.188-1-1.374zm2.937,0.218l-1.187,1.219,1.031,1.406,1.219-1.187-1.063-1.438zm2.969,0.313l-1.156,1.187,1.031,1.375,1.188-1.187-1.063-1.375zm2.938,0.25l-1.157,1.187,1.063,1.406,1.187-1.187-1.093-1.406zm-16.438,0.219l-1.219,1.187,0.938,1.344,1.281-1.125-1-1.406zm19.438,0.031l-1.188,1.219,1.063,1.374,1.156-1.156-1.031-1.437zm-16.469,0.25l-1.219,1.187,0.969,1.344,1.281-1.125-1.031-1.406zm3,0.281l-1.219,1.156,0.969,1.406,1.25-1.187-1-1.375zm2.969,0.25l-1.219,1.188,1.031,1.406,1.25-1.188-1.062-1.406zm3,0.312l-1.219,1.188,1.031,1.344,1.219-1.188-1.031-1.344zm2.969,0.219l-1.188,1.219,1,1.406,1.219-1.187-1.031-1.438zm-16.594,0.219l-1.282,1.156,0.969,1.344,1.313-1.156-1-1.344zm19.562,0.125l-1.187,1.156,1.031,1.344,1.156-1.156-1-1.344zm-16.562,0.156l-1.25,1.125,0.968,1.406,1.282-1.187-1-1.344zm19.5,0.063l-1.156,1.218,1.031,1.376,1.187-1.219-1.062-1.375zm-16.5,0.218l-1.25,1.157,0.968,1.375,1.282-1.156-1-1.376zm3,0.282l-1.25,1.156,1,1.375,1.25-1.156-1-1.375zm3,0.281l-1.282,1.156,1,1.375,1.282-1.187-1-1.344zm2.968,0.25l-1.218,1.187,1,1.376,1.25-1.157-1.032-1.406zm3,0.281l-1.218,1.188,1,1.375,1.25-1.188-1.032-1.375zm-16.656,0.125l-1.312,1.157,0.937,1.374,1.344-1.124-0.969-1.407zm19.594,0.157l-1.188,1.156,1.032,1.406,1.218-1.188-1.062-1.374zm-16.562,0.156l-1.313,1.156,0.937,1.344,1.313-1.125-0.937-1.375zm2.968,0.281l-1.281,1.156,0.937,1.344,1.344-1.094-1-1.406zm3,0.313l-1.281,1.156,0.969,1.344,1.312-1.157-1-1.343zm3,0.25l-1.25,1.156,1,1.406,1.282-1.156-1.032-1.406zm3.032,0.281l-1.25,1.187,0.968,1.344,1.282-1.156-1-1.375zm-16.782,0.093l-1.375,1.126,0.907,1.374,1.374-1.124-0.906-1.376zm19.782,0.157l-1.25,1.187,0.968,1.406,1.282-1.187-1-1.406zm-16.75,0.156l-1.344,1.125,0.906,1.344,1.375-1.125-0.937-1.344zm3,0.281l-1.313,1.125,0.937,1.375,1.344-1.156-0.968-1.344zm3.031,0.313l-1.344,1.125,0.937,1.375,1.344-1.157-0.937-1.343zm3,0.25l-1.313,1.156,0.938,1.344,1.344-1.094-0.969-1.406zm3.031,0.312l-1.312,1.157,0.937,1.343,1.344-1.156-0.969-1.344zm3,0.25l-1.281,1.188,0.969,1.375,1.312-1.156-1-1.407zm-16.875,0.094l-1.406,1.125,0.875,1.312,1.437-1.124-0.906-1.313zm19.875,0.219l-1.25,1.156,0.969,1.344,1.281-1.156-1-1.344zm-16.812,0.062l-1.407,1.125,0.907,1.344,1.437-1.094-0.937-1.375zm3.031,0.313l-1.344,1.125,0.875,1.312,1.375-1.094-0.906-1.343zm3,0.281l-1.344,1.156,0.906,1.313,1.375-1.094-0.937-1.375zm3.031,0.312l-1.344,1.157,0.938,1.312,1.344-1.125-0.938-1.344zm3.031,0.25l-1.343,1.157,0.968,1.375,1.344-1.125-0.969-1.407zm-17,0.032l-1.469,1.062,0.844,1.344,1.469-1.094-0.844-1.312zm3.063,0.281l-1.438,1.125,0.813,1.312,1.5-1.093-0.875-1.344zm16.968,0l-1.312,1.156,0.906,1.344,1.375-1.156-0.969-1.344zm-13.937,0.313l-1.406,1.124,0.843,1.313,1.469-1.094-0.906-1.343zm3.063,0.312l-1.407,1.094,0.907,1.344,1.406-1.094-0.906-1.344zm3.031,0.312l-1.375,1.094,0.875,1.375,1.406-1.125-0.906-1.344zm3.031,0.282l-1.375,1.125,0.906,1.312,1.407-1.062-0.938-1.375zm-14.094,0.25l-1.468,1.062,0.812,1.282,1.531-1.063-0.875-1.281zm17.156,0.062l-1.374,1.125,0.906,1.344,1.375-1.125-0.907-1.344zm-14.062,0.25l-1.469,1.094,0.813,1.281,1.5-1.062-0.844-1.313zm17.062,0l-1.343,1.156,0.937,1.376,1.375-1.126-0.969-1.406zm-13.968,0.313l-1.5,1.062,0.844,1.344,1.531-1.063-0.875-1.343zm3.031,0.312l-1.406,1.094,0.812,1.281,1.469-1.031-0.875-1.344zm3.063,0.313l-1.438,1.094,0.875,1.312,1.437-1.062-0.874-1.344zm-14.25,0.156l-1.563,1.031,0.781,1.25,1.594-1-0.812-1.281zm17.281,0.156l-1.407,1.125,0.876,1.281,1.437-1.093-0.906-1.313zm-14.188,0.188l-1.531,1,0.781,1.312,1.563-1.031-0.813-1.281zm17.25,0.094l-1.406,1.124,0.906,1.344,1.438-1.094-0.938-1.374zm-14.156,0.218l-1.5,1.032,0.781,1.312,1.532-1.031-0.813-1.313zm3.094,0.313l-1.5,1.062,0.812,1.281,1.531-1.031-0.843-1.312zm3.062,0.343l-1.469,1.032,0.844,1.312,1.469-1.062-0.844-1.282zm3.063,0.313l-1.438,1.063,0.844,1.312,1.469-1.062-0.875-1.313zm-14.344,0.063l-1.594,1,0.719,1.25,1.656-0.969-0.781-1.281zm17.438,0.218l-1.469,1.094,0.875,1.312,1.437-1.062-0.843-1.344zm-14.313,0.125l-1.594,1.031,0.781,1.219,1.594-0.969-0.781-1.281zm3.094,0.344l-1.563,1.031,0.782,1.25,1.593-1-0.812-1.281zm3.125,0.313l-1.563,1.031,0.781,1.312,1.594-1.031-0.812-1.312zm-11.469,0.343l-1.656,0.938,0.687,1.187,1.719-0.937-0.75-1.188zm14.563,0l-1.5,1.063,0.75,1.25,1.531-1-0.781-1.313zm3.062,0.313l-1.5,1.094,0.812,1.25,1.532-1-0.844-1.344zm-14.469,0.031l-1.656,0.969,0.719,1.187,1.687-0.937-0.75-1.219zm17.531,0.313l-1.468,1.093,0.812,1.25,1.532-1.062-0.876-1.281zm-14.406,0.062l-1.594,0.938,0.688,1.25,1.656-0.938-0.75-1.25zm3.125,0.312l-1.593,1,0.718,1.25,1.656-0.968-0.781-1.282zm3.125,0.344l-1.594,1.032,0.75,1.218,1.626-0.968-0.782-1.282zm-11.562,0.25l-1.688,0.875,0.625,1.188,1.75-0.875-0.687-1.188zm14.656,0.094l-1.531,1,0.781,1.312,1.562-1.031-0.812-1.281zm-11.5,0.25l-1.688,0.938,0.657,1.187,1.75-0.875-0.719-1.25zm14.594,0.125l-1.532,1,0.782,1.281,1.562-1.031-0.812-1.25zm-11.438,0.25l-1.656,0.969,0.688,1.187,1.718-0.937-0.75-1.219zm3.156,0.375l-1.656,0.969,0.688,1.187,1.687-0.937-0.719-1.219zm-11.781,0.094l-1.75,0.812,0.625,1.094,1.813-0.75-0.688-1.156zm14.907,0.25l-1.626,0.968,0.719,1.25,1.657-0.968-0.75-1.25zm-11.688,0.125l-1.75,0.875,0.625,1.125,1.813-0.844-0.688-1.156zm14.812,0.219l-1.562,1.031,0.688,1.187,1.624-0.937-0.75-1.281zm-11.624,0.187l-1.75,0.906,0.656,1.125,1.781-0.844-0.687-1.187zm3.156,0.406l-1.719,0.907,0.656,1.156,1.781-0.875-0.718-1.188zm-8.688,0.344l-1.812,0.781,0.562,1.063,1.813-0.75-0.563-1.094zm11.875,0l-1.687,0.937,0.656,1.188,1.719-0.906-0.688-1.219zm3.157,0.375l-1.688,0.969,0.688,1.156,1.718-0.906-0.718-1.219zm-11.813,0.031l-1.781,0.781,0.562,1.126,1.844-0.782-0.625-1.125zm3.219,0.407l-1.782,0.843,0.563,1.125,1.844-0.812-0.625-1.156zm-8.875,0.187l-1.907,0.719,0.532,0.968,1.937-0.624-0.562-1.063zm12.062,0.219l-1.781,0.875,0.625,1.093,1.813-0.812-0.657-1.156zm-8.843,0.25l-1.844,0.718,0.562,1,1.875-0.656-0.593-1.062zm12.031,0.156l-1.75,0.875,0.625,1.125,1.781-0.844-0.656-1.156zm-8.75,0.281l-1.875,0.75,0.562,1.031,1.906-0.687-0.593-1.094zm11.937,0.094l-1.75,0.906,0.656,1.157,1.75-0.876-0.656-1.187zm-8.718,0.344l-1.844,0.781,0.562,1.062,1.875-0.75-0.593-1.093zm-9,0.031l-1.907,0.656,0.469,0.969,2-0.594-0.562-1.031zm12.187,0.406l-1.813,0.813,0.594,1.062,1.844-0.75-0.625-1.125zm-8.906,0.125l-1.938,0.625,0.531,0.969,1.907-0.563-0.5-1.031zm12.125,0.281l-1.782,0.813,0.563,1.125,1.844-0.781-0.625-1.157zm-8.875,0.188l-1.875,0.656,0.5,1,1.937-0.625-0.562-1.031zm-5.813,0.375l-2,0.563,0.469,0.874,2.031-0.5-0.5-0.937zm9.094,0.063l-1.906,0.718,0.531,1.032,1.906-0.657-0.531-1.093zm-5.844,0.437l-1.937,0.563,0.5,0.937,1.969-0.5-0.532-1zm9.063,0l-1.875,0.75,0.562,1.031,1.906-0.687-0.593-1.094zm-14.969,0.219l-2.062,0.437,0.406,0.813,2.094-0.375-0.438-0.875zm9.219,0.281l-1.969,0.625,0.5,0.938,1.969-0.563-0.5-1zm-5.938,0.25l-2.031,0.469,0.469,0.875,2.062-0.438-0.5-0.906zm9.188,0.219l-1.938,0.656,0.531,0.969,1.969-0.594-0.562-1.031zm-5.875,0.344l-2,0.5,0.468,0.874,1.969-0.468-0.437-0.906zm-6,0.031l-2.094,0.375,0.406,0.781,2.125-0.281-0.437-0.875zm-2.782,0.5l-2.124,0.219,0.374,0.718,2.157-0.187-0.407-0.75zm6.126,0.125l-2.094,0.406,0.437,0.781,2.094-0.343-0.437-0.844zm-2.75,0.5l-2.126,0.281,0.344,0.687,2.156-0.218-0.374-0.75zm-2.876,0.344l-2.156,0.187,0.375,0.625,2.188-0.125-0.407-0.687zm-2.843,0.218l-2.188,0.063,0.375,0.531h2.188l-0.375-0.594z" transform="translate(0,952.36218)"></path><path fill="#000" d="m18.673,980.81-1.6597,0-0.62239,9.6618c1.5468,0.95533,2.7518,1.4803,4.9495,1.6301,2.1977,0.14977,13.169-0.11707,19.501-0.29637,1.2636-0.0358,1.7287-0.42023,2.5488-0.74094,0.13503-2.9978,0.36895-6.0615,0.74094-9.2173l-1.1262-0.59275-0.11855,0.20747,0.56311,0.53347c-1.7578,0.55677-20.006,0.57933-23.147,0-1.0629-0.23403-1.9198-0.52691-2.4303-0.91876l0.9484-0.0296z"></path><path stroke-linejoin="miter" d="m21.665,58.656c0.55257,2.2783,1.5562,3.6651,3.1712,5.5422s0.73394,3.8501,0.2371,5.1273l22.91-1.4819c1.0861-1.4346,1.0211-3.2005-0.14819-4.4456-1.0614-1.1302-1.6098-1.7518-1.9561-2.9637" transform="translate(0,952.36218)" stroke="#000" stroke-linecap="butt" stroke-width="0.25" fill="none"></path><path fill="#000" d="m25.744,1032.7c-0.0869-0.4633-0.05177-1.3454-0.21285-2.3654-0.23274-1.4738-0.66452-3.2354-0.70022-4.4375-0.10004-3.3683,0.16341-4.4439,0.23862-5.2983,0.12035-1.367,0.23766-3.1612-1.2987-3.4268-1.6948-0.293-1.8574,0.7264-2.107,1.7041-0.58403,2.7206-0.16341,6.3654,0.05927,7.9428,0.50891,3.4876,0.64603,6.5453,3.3295,8.6864,1.251,0.9596,1.6351,1.0728,2.7218,1.1743"></path><path fill="#000" d="m47.836,1015.7c1.7415,0.1025,2.3826,0.8594,2.4641,1.8916,0.11355,1.4377-0.47787,3.2266-0.47721,5.3476,0.000808,2.5996,0.47721,7.784,0.47721,7.784l-3.7427-8.8404,0.06453-1.581,1.2906-0.129c1.4218-1.4638,0.87258-3.2811-0.07653-4.4728z"></path><path stroke-linejoin="miter" d="M0,0,0,100m10-100,0,100m10-100,0,100m10-100,0,100m10-100,0,100m10-100,0,100m10-100,0,100m10-100,0,100m10-100,0,100m10-100,0,100m10-100,0,100m-100-100,100,0m-100,10,100,0m-100,10,100,0m-100,10,100,0m-100,10,100,0m-100,10,100,0m-100,10,100,0m-100,10,100,0m-100,10,100,0m-100,10,100,0m-100,10,100,0" stroke="#000" stroke-linecap="butt" stroke-width="0.5pt" fill="none"></path><path stroke-linejoin="miter" d="m0.1,0,0,100m10-100,0,100m10-100,0,100m10-100,0,100m10-100,0,100m10-100,0,100m10-100,0,100m10-100,0,100m10-100,0,100m10-100,0,100m-90-99.9,100,0m-100,10,100,0m-100,10,100,0m-100,10,100,0m-100,10,100,0m-100,10,100,0m-100,10,100,0m-100,10,100,0m-100,10,100,0m-100,10,100,0" stroke="#000" stroke-linecap="butt" stroke-width="0.5pt" fill="none"></path><path stroke-linejoin="miter" d="m0.1,0,0,100m10-100,0,100m10-100,0,100m10-100,0,100m10-100,0,100m10-100,0,100m10-100,0,100m10-100,0,100m10-100,0,100m10-100,0,100m-90-99.9,100,0m-100,10,100,0m-100,10,100,0m-100,10,100,0m-100,10,100,0m-100,10,100,0m-100,10,100,0m-100,10,100,0m-100,10,100,0m-100,10,100,0" stroke="#000" stroke-linecap="butt" stroke-width="0.5pt" fill="none"></path><path stroke-linejoin="miter" d="m0.1,0,0,100m10-100,0,100m10-100,0,100m10-100,0,100m10-100,0,100m10-100,0,100m10-100,0,100m10-100,0,100m10-100,0,100m10-100,0,100m-90-99.9,100,0m-100,10,100,0m-100,10,100,0m-100,10,100,0m-100,10,100,0m-100,10,100,0m-100,10,100,0m-100,10,100,0m-100,10,100,0m-100,10,100,0" stroke="#000" stroke-linecap="butt" stroke-width="0.5pt" fill="none"></path><path stroke-linejoin="miter" d="m0.1,0,0,100m10-100,0,100m10-100,0,100m10-100,0,100m10-100,0,100m10-100,0,100m10-100,0,100m10-100,0,100m10-100,0,100m10-100,0,100m-90-99.9,100,0m-100,10,100,0m-100,10,100,0m-100,10,100,0m-100,10,100,0m-100,10,100,0m-100,10,100,0m-100,10,100,0m-100,10,100,0m-100,10,100,0" stroke="#000" stroke-linecap="butt" stroke-width="0.5pt" fill="none"></path><g transform="translate(19.173705,58.170408)"><path fill="none" d="M69.802-5.621l1.754-0.141,4.675,0.766,6.498,2.719v4.554l-6.498,2.719-4.675,0.766-1.754-0.141-0.923,7.016,1.73,0.317,4.317,1.95,5.574,4.308-1.179,4.4-6.981,0.944-4.714-0.47-1.657-0.59-2.708,6.537,1.589,0.755,3.666,3,4.268,5.604-2.277,3.945-6.987-0.895-4.432-1.674-1.448-0.999-4.308,5.614,1.34,1.14,2.764,3.847,2.673,6.518-3.221,3.221-6.518-2.673-3.847-2.764-1.14-1.34-5.614,4.308,0.999,1.448,1.674,4.432,0.895,6.987-3.945,2.277-5.604-4.268-3-3.666-0.755-1.589-6.537,2.708,0.59,1.657,0.47,4.714-0.944,6.981-4.4,1.179-4.308-5.574-1.95-4.317-0.317-1.73-7.016,0.923,0.141,1.754-0.766,4.675-2.719,6.498h-4.554l-2.719-6.498-0.766-4.675,0.141-1.754-7.016-0.923-0.317,1.73-1.95,4.317-4.308,5.574-4.4-1.179-0.944-6.981,0.47-4.714,0.59-1.657-6.537-2.708-0.755,1.589-3,3.666-5.604,4.268-3.945-2.277,0.895-6.987,1.674-4.432,0.999-1.448-5.614-4.308-1.14,1.34-3.847,2.764-6.518,2.673-3.221-3.221,2.673-6.518,2.764-3.847,1.34-1.14-4.308-5.614-1.448,0.999-4.432,1.674-6.987,0.895-2.277-3.945,4.268-5.604,3.666-3,1.589-0.755-2.708-6.537-1.657,0.59-4.714,0.47-6.981-0.944-1.179-4.4,5.574-4.308,4.317-1.95,1.73-0.317-0.923-7.016-1.754,0.141-4.675-0.766-6.498-2.719v-4.554l6.498-2.719,4.675-0.766,1.754,0.141,0.923-7.016-1.73-0.317-4.317-1.95-5.574-4.308,1.179-4.4,6.981-0.944,4.714,0.47,1.657,0.59,2.708-6.537-1.589-0.755-3.666-3-4.268-5.604,2.277-3.945,6.987,0.895,4.432,1.674,1.448,0.999,4.308-5.614-1.34-1.14-2.764-3.847-2.673-6.518,3.221-3.221,6.518,2.673,3.847,2.764,1.14,1.34,5.614-4.308-0.999-1.448-1.674-4.432-0.895-6.987,3.945-2.277,5.604,4.268,3,3.666,0.755,1.589,6.537-2.708-0.59-1.657-0.47-4.714,0.944-6.981,4.4-1.179,4.308,5.574,1.95,4.317,0.317,1.73,7.016-0.923-0.141-1.754,0.766-4.675,2.719-6.498h4.554l2.719,6.498,0.766,4.675-0.141,1.754,7.016,0.923,0.317-1.73,1.95-4.317,4.308-5.574,4.4,1.179,0.944,6.981-0.47,4.714-0.59,1.657,6.537,2.708,0.755-1.589,3-3.666,5.604-4.268,3.945,2.277-0.895,6.987-1.674,4.432-0.999,1.448,5.614,4.308,1.14-1.34,3.847-2.764,6.518-2.673,3.221,3.221-2.673,6.518-2.764,3.847-1.34,1.14,4.308,5.614,1.448-0.999,4.432-1.674,6.987-0.895,2.277,3.945-4.268,5.604-3.666,3-1.589,0.755,2.708,6.537,1.657-0.59,4.714-0.47,6.981,0.944,1.179,4.4-5.574,4.308-4.317,1.95-1.73,0.317z" stroke="#000"></path></g></g></svg>