<svg xmlns="http://www.w3.org/2000/svg" xmlns:xlink="http://www.w3.org/1999/xlink" version="1.1" x="0px" y="0px" viewBox="0 0 64 64" enable-background="new 0 0 64 64" xml:space="preserve"><g><path fill="#000000" d="M39.3,28c1,1.7,2.7,2.7,4.7,2.8c0.1,0,0.2,0,0.4,0c1,0,2-0.3,2.9-0.7c2.8-1.6,3.8-5,2.4-7.8   c-0.8-1.5-2-2.5-3.5-3c-0.4-0.1-0.9-0.2-1.4-0.2c-1.1-0.1-2.2,0.2-3.2,0.7c-1.4,0.8-2.4,2.1-2.9,3.6C38.3,24.9,38.5,26.6,39.3,28z    M41,24c0.2-0.9,0.8-1.6,1.7-2.1c0.5-0.3,1.1-0.4,1.7-0.4c0.1,0,0.1,0,0.2,0c0.3,0,0.5,0.1,0.8,0.1c0.9,0.3,1.6,0.9,2.1,1.8   c0.8,1.6,0.2,3.6-1.4,4.5c-0.6,0.3-1.3,0.5-1.9,0.4c-1.1-0.1-2.1-0.7-2.7-1.6C40.9,25.9,40.8,24.9,41,24z"></path><path fill="#000000" d="M44,15.1c1.3,0.1,2.7-0.2,4.2-0.7c0.2-0.1,0.4-0.2,0.6-0.3c0.4-0.2,0.7-0.5,1-0.7l0.1-0.1l2.1,1.3l0,0.2   c-0.3,1.7,0,3.4,1,5.3c1,1.8,2.3,3.1,4,3.8l0.1,0.1v0.2c0,0.7,0,1.4,0,2.1v0.2L57,26.4c-0.3,0.1-0.7,0.3-1,0.4   c-1.4,0.8-2.7,2.2-3.5,3.9c-0.8,1.6-1.1,3.2-0.8,4.7l0,0.2l-0.2,0.1c-0.3,0.2-0.7,0.4-0.9,0.5l-1,0.6l-0.1-0.1   c-1.1-1-2.6-1.6-4.4-1.8c-1.9-0.2-3.8,0.2-5.1,0.9c-0.3,0.2-0.6,0.4-0.9,0.6l-0.1,0.1l-0.1-0.1c-0.6-0.3-1.1-0.7-1.8-1.1l-0.1-0.1   l0-0.2c0.3-1.9-0.1-3.7-1.1-5.5c-0.3-0.5-0.6-0.9-0.9-1.3c-0.7,0.5-1.5,1-2.3,1.4c0.3,0.3,0.6,0.7,0.8,1.2c0.8,1.3,1,2.7,0.7,4.1   c-0.2,0.9,0.2,1.8,1,2.3c1,0.6,1.9,1.2,2.8,1.7c0.3,0.2,0.7,0.3,1,0.3h0.1c0.3,0,0.7-0.1,1-0.3c0.2-0.1,0.4-0.3,0.5-0.4   c0.2-0.2,0.4-0.4,0.7-0.5c0.7-0.4,1.8-0.6,2.9-0.6c0.2,0,0.5,0,0.7,0c1.3,0.1,2.4,0.6,3,1.2c0.4,0.5,1,0.7,1.5,0.8h0.1   c0.4,0,0.8-0.1,1.2-0.3c0.4-0.2,0.8-0.5,1.1-0.6l0.1,0c0.3-0.2,0.8-0.4,1.3-0.7c1-0.6,1.4-1.5,1.1-2.6c-0.2-0.9,0-2.1,0.6-3.2   c0.6-1.2,1.5-2.2,2.4-2.7c0.3-0.1,0.6-0.3,0.9-0.3c0.7-0.2,1.2-0.6,1.5-1.2c0.1-0.3,0.2-0.6,0.2-0.9c0-1.1,0-2.2,0.1-3.2   c0-1-0.5-1.8-1.4-2.1c-1.4-0.5-2.4-1.4-3.1-2.8c-0.8-1.4-0.9-2.6-0.6-3.9c0.2-1-0.2-1.9-1-2.4l-1.1-0.7c-0.5-0.3-1-0.6-1.5-0.9   c-0.7-0.4-1.6-0.4-2.3-0.1c-0.1,0.1-0.3,0.2-0.4,0.3l-0.1,0.1c-0.3,0.2-0.5,0.4-0.8,0.6c-0.1,0-0.1,0.1-0.2,0.1   c-1.1,0.4-2.2,0.6-3.1,0.5C43,12.3,42,11.9,41,11.1c0.3,1.1,0.4,2.2,0.5,3.4C42.2,14.8,43.1,15,44,15.1z"></path><path fill="#000000" d="M21.1,20.7c0.5,0.3,1.1,0.5,1.7,0.6c0.3,0.1,0.6,0.1,0.9,0.1v1.3h2.2v-1.5c0.2-0.1,0.5-0.1,0.7-0.2   c1.3-0.6,2.1-1.5,2.3-2.9c0.2-1.4-0.3-2.7-1.5-3.5c-0.6-0.5-1.4-0.8-2-1c-0.6-0.2-1-0.5-1.4-0.7c-0.1-0.1-0.5-0.3-0.4-1.1   c0.1-0.4,0.3-0.7,0.8-0.9c0.4-0.1,0.9-0.2,1.6,0c0.5,0.1,0.9,0.2,1.3,0.5l0.5,0.3l0.3-0.8c0.1-0.3,0.2-0.6,0.3-0.9   c0.1-0.3-0.1-0.7-0.3-0.8l-0.2-0.1C27.6,9,27.3,8.9,27,8.8c-0.3-0.1-0.6-0.1-1-0.2V7.3h-2.2v1.4c-0.6,0.2-1.2,0.4-1.6,0.8   c-0.8,0.6-1.3,1.6-1.3,2.7c0,1,0.4,1.9,1.2,2.5c0.7,0.6,1.5,0.9,2.1,1.2c0.6,0.2,1.1,0.4,1.5,0.8c0.4,0.3,0.7,0.9,0.6,1.3   c-0.1,0.5-0.4,0.9-0.9,1.1c-0.3,0.1-0.6,0.2-0.9,0.2l-0.2,0c-0.7,0-1.4-0.2-2.2-0.6l-0.8-0.4l-0.3,0.9c-0.1,0.3-0.2,0.5-0.3,0.7   C20.7,20.2,20.8,20.5,21.1,20.7z"></path><path fill="#000000" d="M24.8,29.7L24.8,29.7c8.1,0,14.6-6.5,14.7-14.5c0-3.9-1.5-7.6-4.2-10.4C32.5,2,28.8,0.5,24.9,0.4   c-8,0-14.6,6.5-14.6,14.5c0,3.9,1.5,7.6,4.2,10.4C17.2,28.1,20.9,29.6,24.8,29.7z M24.9,3c3.2,0,6.3,1.3,8.5,3.6   c2.3,2.3,3.5,5.3,3.5,8.6c0,6.6-5.5,12-12.1,12h-0.1c-3.2,0-6.3-1.3-8.5-3.6c-2.3-2.3-3.5-5.3-3.5-8.6C12.8,8.4,18.3,3,24.9,3z"></path><path fill="#000000" d="M62.9,48.5c-0.2-0.6-0.7-1.1-1.4-1.4c-0.4-0.2-0.9-0.3-1.4-0.4c-0.4-0.6-1.1-0.8-1.4-0.9   c-0.9-0.3-1.8-0.4-2.7-0.4c-0.4-0.5-1.1-1.1-2.3-1.1c-0.2,0-0.4,0-0.6,0c-0.3,0-0.5,0.1-0.8,0.2c-0.3,0.1-0.7,0.2-1.2,0.3   c-0.3,0.1-0.6,0.3-0.8,0.6c-0.2,0.3-0.2,0.7-0.1,1c0.2,0.5,0.7,0.9,1.3,0.9c0.1,0,0.3,0,0.4-0.1c0.4-0.1,0.7-0.2,1.1-0.3   c0.2,0,0.3-0.1,0.5-0.1c0.3,0,0.4,0,0.5,0c0.1,0.2,0.2,0.5,0.5,0.7c0.3,0.2,0.6,0.3,1,0.3c0.2,0,0.3,0,0.5,0c0.7,0,1.4,0.1,1.9,0.3   l0.2,0.3c0.1,0.2,0.4,0.5,0.8,0.7c-5,1.7-8.5,3.9-8.9,4.2c-4.3,2.9-13,6-13.3,6.2c-3.8,1.4-6.6,1.7-9.7,1.1   c-2.4-0.5-4.6-1.5-6.7-2.6c-1.1-0.6-2.3-1.1-3.5-1.6c-0.5-0.2-5.5-2.1-5.5-2.1c-0.5-0.2-1.1,0.2-1.1,0.8l0.1,1.8l0.1,0.9   c-0.3,0-0.6,0-0.9,0.1c-0.1-0.2-0.3-0.4-0.4-0.6c-1.7-2.7-3.1-5.5-4-8.5c-0.3-0.9-0.5-1.7-0.7-2.6c-0.1-0.4-0.2-0.8-0.3-1.3   c-0.1-0.5-0.2-1.1-0.3-1.6c1.8-0.1,3.6-0.3,5.4-0.4l0.1,1.3l0.1,1.3l2.5-0.2c0.9-0.1,2.4-0.3,3.3-0.5c1.3-0.2,2.7-0.1,4.3,0.3   c1,0.3,1.9,0.6,3,1c0.7,0.3,1.4,0.5,2.1,0.7c0.8,0.3,1.7,0.6,2.5,0.8l0.1,0c2.2,0.8,4.5,1.6,7,1.9c0.5,0.1,1,0.1,1.4,0.1   c0.9,0.1,1.8,0.1,2.7,0c1-0.1,2-0.2,3-0.3c1-0.1,1.9-0.3,3-0.4c0.2,0,0.3,0,0.5,0c0.9-0.1,1.8,0,2.5,0.1c0.1,0,0.1,0.1,0.1,0.1   c0,0.1,0,0.3,0,0.3c-0.3,0.4-1,0.6-1.7,0.7l-0.1,0c-0.2,0.1-0.4,0.1-0.6,0.2c-2.4,0.8-5,1.2-8.5,1.5c-1.1,0.1-2.1,0.1-3,0.1   c-0.2,0-0.5,0-0.7,0c-0.3,0-0.7-0.1-1,0c-0.3,0-0.7,0.2-0.9,0.5c-0.2,0.3-0.3,0.6-0.3,0.9c0,0.7,0.6,1.2,1.3,1.2c0,0,0.1,0,0.1,0   c0.2,0,0.4,0,0.6,0c0.2,0,0.5,0,0.7,0c1,0,2,0,3.4-0.1c3.7-0.3,6.5-0.8,9.1-1.6c0.2-0.1,0.4-0.1,0.6-0.2c1.1-0.3,2.4-0.6,3.2-1.8   c0.5-0.8,0.7-1.8,0.3-2.7c-0.3-0.9-1-1.5-1.9-1.7c-1-0.3-2.2-0.3-3.3-0.2c-0.2,0-0.5,0-0.6,0.1c-1,0.1-2,0.2-3,0.4l-0.1,0   c-0.9,0.1-1.9,0.2-2.8,0.3c-0.7,0.1-1.5,0.1-2.2,0c-0.4,0-0.8-0.1-1.2-0.1c-2.2-0.3-4.3-1-6.5-1.8l-0.1,0c-0.8-0.3-1.7-0.6-2.6-0.9   c-0.6-0.2-1.3-0.4-1.9-0.7l0,0c-1-0.4-2.1-0.7-3.2-1c-2.5-0.7-5-0.6-7,0.1c-0.5,0-0.9,0.1-1.4,0.1c0-0.3,0-0.7-0.1-1   c-0.1-1-0.6-1.5-1.7-1.4c-2.8,0.2-5.6,0.4-8.4,0.6c-0.2,0-0.4,0.1-0.7,0.1c0.2,1.5,0.4,2.9,0.7,4.4c0.2,0.9,0.4,1.9,0.6,2.8   c1.1,4.1,3,8,5.4,11.6c0.1,0.1,0.1,0.2,0.2,0.3c0.1,0.2,0.5,0.4,0.7,0.4c0.9,0,1.9-0.1,2.8-0.2c0.8-0.1,1.4-0.8,1.4-1.6v0   c0-0.3,0-0.6,0-0.8c2.2,0.5,4.1,1.4,6,2.5c1.9,1.1,4,2,6.1,2.5c0.5,0.1,1,0.2,1.5,0.3c1.1,0.2,2.2,0.3,3.3,0.3c2.4,0,5-0.5,7.8-1.5   c0.1,0,9.2-3.3,13.9-6.5c0,0,4.4-2.8,10.2-4.5c0.5-0.2,0.8-0.5,1-0.8C63,49.7,63.1,49.1,62.9,48.5z"></path><polygon fill="#000000" points="41.6,19.2 41.6,19.2 41.6,19.2  "></polygon></g></svg>