<svg xmlns="http://www.w3.org/2000/svg" xmlns:xlink="http://www.w3.org/1999/xlink" version="1.1" x="0px" y="0px" viewBox="0 0 60 48" enable-background="new 0 0 60 48" xml:space="preserve"><g><path fill="#000000" d="M59,0H1C0.45,0,0,0.45,0,1v38c0,0.55,0.45,1,1,1h26v3h-5v5h16v-5h-5v-3h26c0.55,0,1-0.45,1-1V1   C60,0.45,59.55,0,59,0z M36,45v1H24v-1h5v-5h2v5H36z M58,38H33h-6H2V2h56V38z"></path><path fill="#000000" d="M55,28H42.37l-0.09-0.08c-0.35-0.31-0.73-0.57-1.12-0.78l-4.62-2.99l-0.1-0.05   c-0.35-0.17-0.74-0.26-1.08-0.33c-0.11-0.02-0.25-0.05-0.37-0.08v-1.3c0.04-0.03,0.09-0.06,0.14-0.1c0.68-0.47,0.99-0.7,1.18-0.97   c0.69-0.98,1.39-2.04,1.83-3.17c0.96-0.44,1.85-1.29,1.85-2.37v-2.25c0-0.41-0.16-0.82-0.48-1.2C39.28,12.06,39,11.6,39,11.03V9.97   C38.94,7.56,37.18,3,31,3s-7.94,4.56-8,7v1.03c0,0.58-0.28,1.04-0.52,1.32c-0.32,0.38-0.48,0.78-0.48,1.2v2.25   c0,0.96,0.79,1.65,1.35,2.04c0.67,2.02,2.68,3.51,3.65,4.14v1.33c-0.26,0.25-1.06,0.63-1.42,0.8c-0.22,0.11-0.41,0.2-0.58,0.29   l-4.68,2.72c-0.4,0.22-0.78,0.5-1.13,0.83L19.12,28H14v7h41V28z M25.99,26.13c0.12-0.06,0.28-0.14,0.46-0.23   c1.14-0.54,2.56-1.22,2.56-2.45v-2.65l-0.52-0.28c-0.79-0.43-2.91-1.9-3.29-3.55l-0.09-0.4l-0.34-0.22   c-0.62-0.4-0.73-0.6-0.76-0.57v-2.14c0,0,0.01-0.01,0.02-0.02c0.63-0.76,0.98-1.68,0.98-2.6l0-1C25.02,9.52,25.34,5,31,5   s5.98,4.52,6,5v1.03c0,0.91,0.34,1.82,1,2.63l0,2.12c-0.03,0.14-0.44,0.51-0.93,0.66l-0.5,0.15l-0.16,0.5   c-0.34,1.05-1.03,2.11-1.67,3.03c-0.1,0.1-0.52,0.39-0.74,0.54c-0.42,0.29-0.62,0.43-0.76,0.58L33,21.52V24   c0,1.33,1.32,1.6,1.96,1.74c0.2,0.04,0.43,0.09,0.56,0.14L38.8,28H22.76L25.99,26.13z M53,33H16v-3h4.07h21.38H53V33z"></path><path fill="#000000" d="M55,4h-6v6h6V4z M53,8h-2V6h2V8z"></path><path fill="#000000" d="M12,28H5v7h7V28z M10,33H7v-3h3V33z"></path></g></svg>